<?xml version="1.0" encoding="UTF-8" standalone="no"?>
<!-- Created with Inkscape (http://www.inkscape.org/) -->

<svg
   width="210mm"
   height="297mm"
   viewBox="0 0 210 297"
   version="1.1"
   id="svg5"
   inkscape:version="1.1.1 (3bf5ae0d25, 2021-09-20)"
   sodipodi:docname="logo.svg"
   xmlns:inkscape="http://www.inkscape.org/namespaces/inkscape"
   xmlns:sodipodi="http://sodipodi.sourceforge.net/DTD/sodipodi-0.dtd"
   xmlns="http://www.w3.org/2000/svg"
   xmlns:svg="http://www.w3.org/2000/svg">
  <sodipodi:namedview
     id="namedview7"
     pagecolor="#ffffff"
     bordercolor="#666666"
     borderopacity="1.0"
     inkscape:pageshadow="2"
     inkscape:pageopacity="0.0"
     inkscape:pagecheckerboard="0"
     inkscape:document-units="px"
     showgrid="false"
     showborder="false"
     inkscape:zoom="1"
     inkscape:cx="350.5"
     inkscape:cy="561.5"
     inkscape:window-width="1920"
     inkscape:window-height="1001"
     inkscape:window-x="2391"
     inkscape:window-y="-9"
     inkscape:window-maximized="1"
     inkscape:current-layer="layer1" />
  <defs
     id="defs2" />
  <g
     inkscape:label="Layer 1"
     inkscape:groupmode="layer"
     id="layer1">
    <g
       aria-label="Kafka"
       id="text3994"
       style="font-size:25.4px;line-height:1.25;stroke-width:0.264583">
      <path
         d="m 29.761491,118.79793 h -3.187402 l -7.304981,-8.22276 -1.835546,1.95957 v 6.26319 h -2.455664 v -18.46709 h 2.455664 v 9.63662 l 8.966894,-9.63662 h 2.976562 l -8.247558,8.68164 z"
         id="path14856" />
      <path
         d="m 42.349869,118.79793 h -2.319238 v -1.47588 q -0.310059,0.21084 -0.84336,0.59531 -0.520898,0.37207 -1.016992,0.59531 -0.58291,0.28526 -1.339453,0.47129 -0.756543,0.19844 -1.773535,0.19844 -1.872754,0 -3.175,-1.24023 -1.302246,-1.24024 -1.302246,-3.1626 0,-1.5751 0.669726,-2.54248 0.682129,-0.97979 1.934766,-1.53789 1.265039,-0.55811 3.038574,-0.75655 1.773535,-0.19843 3.80752,-0.29765 v -0.35967 q 0,-0.79375 -0.285254,-1.31465 -0.272852,-0.5209 -0.79375,-0.81855 -0.496094,-0.28526 -1.190625,-0.38448 -0.694531,-0.0992 -1.451074,-0.0992 -0.917774,0 -2.046387,0.24804 -1.128613,0.23565 -2.331641,0.69453 h -0.124023 v -2.36884 q 0.682129,-0.18604 1.971973,-0.40928 1.289843,-0.22324 2.54248,-0.22324 1.463477,0 2.54248,0.24804 1.091407,0.23565 1.885157,0.81856 0.781347,0.57051 1.190625,1.47588 0.409277,0.90537 0.409277,2.24482 z m -2.319238,-3.41065 v -3.85713 q -1.066602,0.062 -2.517676,0.18604 -1.438672,0.12402 -2.282031,0.35967 -1.00459,0.28525 -1.624707,0.89297 -0.620117,0.59531 -0.620117,1.64951 0,1.19062 0.719335,1.79834 0.719336,0.59531 2.195215,0.59531 1.227832,0 2.244824,-0.47129 1.016993,-0.48369 1.885157,-1.15342 z"
         id="path14858" />
      <path
         d="m 54.293324,101.75711 h -0.124023 q -0.384473,-0.11162 -1.00459,-0.22324 -0.620117,-0.12403 -1.091406,-0.12403 -1.500684,0 -2.182813,0.66973 -0.669726,0.65732 -0.669726,2.39365 v 0.47129 h 4.204394 v 1.95957 h -4.12998 v 11.89385 h -2.331641 v -11.89385 h -1.575098 v -1.95957 h 1.575098 v -0.45889 q 0,-2.46806 1.227832,-3.78271 1.227832,-1.327052 3.54707,-1.327052 0.781348,0 1.401465,0.07441 0.63252,0.07441 1.153418,0.173633 z"
         id="path14860" />
      <path
         d="m 68.34518,118.79793 h -3.075782 l -5.55625,-6.06475 -1.513086,1.43867 v 4.62608 h -2.33164 V 99.499881 h 2.33164 v 12.377539 l 6.734473,-6.93291 h 2.939355 l -6.436816,6.39961 z"
         id="path14862" />
      <path
         d="m 81.56608,118.79793 h -2.319238 v -1.47588 q -0.310059,0.21084 -0.843359,0.59531 -0.520899,0.37207 -1.016993,0.59531 -0.58291,0.28526 -1.339453,0.47129 -0.756543,0.19844 -1.773535,0.19844 -1.872754,0 -3.175,-1.24023 -1.302246,-1.24024 -1.302246,-3.1626 0,-1.5751 0.669727,-2.54248 0.682129,-0.97979 1.934765,-1.53789 1.265039,-0.55811 3.038575,-0.75655 1.773535,-0.19843 3.807519,-0.29765 v -0.35967 q 0,-0.79375 -0.285254,-1.31465 -0.272851,-0.5209 -0.79375,-0.81855 -0.496094,-0.28526 -1.190625,-0.38448 -0.694531,-0.0992 -1.451074,-0.0992 -0.917773,0 -2.046387,0.24804 -1.128613,0.23565 -2.33164,0.69453 h -0.124024 v -2.36884 q 0.682129,-0.18604 1.971973,-0.40928 1.289844,-0.22324 2.54248,-0.22324 1.463477,0 2.542481,0.24804 1.091406,0.23565 1.885156,0.81856 0.781348,0.57051 1.190625,1.47588 0.409277,0.90537 0.409277,2.24482 z m -2.319238,-3.41065 v -3.85713 q -1.066602,0.062 -2.517676,0.18604 -1.438672,0.12402 -2.282031,0.35967 -1.00459,0.28525 -1.624707,0.89297 -0.620117,0.59531 -0.620117,1.64951 0,1.19062 0.719336,1.79834 0.719336,0.59531 2.195215,0.59531 1.227832,0 2.244824,-0.47129 1.016992,-0.48369 1.885156,-1.15342 z"
         id="path14864" />
    </g>
    <g
       aria-label="Cake"
       id="text11104"
       style="font-size:25.4px;line-height:1.25;fill:#ed0000;stroke-width:0.264583">
      <path
         d="m 101.67441,117.98762 q -0.68213,0.29766 -1.24024,0.5581 -0.5457,0.26045 -1.438669,0.54571 -0.756542,0.23564 -1.649511,0.39687 -0.880567,0.17364 -1.947168,0.17364 -2.00918,0 -3.658691,-0.55811 -1.63711,-0.57051 -2.85254,-1.77354 -1.190624,-1.17822 -1.860351,-2.98896 -0.669727,-1.82314 -0.669727,-4.2292 0,-2.28203 0.644922,-4.08037 0.644922,-1.79834 1.860352,-3.03857 1.178222,-1.20303 2.840136,-1.83555 1.674317,-0.63252 3.708301,-0.63252 1.488281,0 2.96416,0.35967 1.488282,0.35967 3.299026,1.26504 v 2.91455 h -0.18604 q -1.525486,-1.27744 -3.026169,-1.86035 -1.500684,-0.58291 -3.212207,-0.58291 -1.401465,0 -2.530078,0.45888 -1.116211,0.44649 -1.996778,1.40147 -0.855761,0.93017 -1.339453,2.35644 -0.471289,1.41387 -0.471289,3.27422 0,1.94717 0.520899,3.34863 0.5333,1.40147 1.364257,2.28203 0.868164,0.91778 2.021582,1.36426 1.165821,0.43408 2.455664,0.43408 1.773536,0 3.323829,-0.60771 1.550293,-0.60771 2.902143,-1.82314 h 0.17364 z"
         id="path14867" />
      <path
         d="m 115.72626,119.32707 h -2.31924 v -1.47588 q -0.31005,0.21084 -0.84335,0.59532 -0.5209,0.37207 -1.017,0.59531 -0.58291,0.28525 -1.33945,0.47129 -0.75654,0.19843 -1.77353,0.19843 -1.87276,0 -3.175,-1.24023 -1.30225,-1.24023 -1.30225,-3.1626 0,-1.57509 0.66973,-2.54248 0.68212,-0.97978 1.93476,-1.53789 1.26504,-0.5581 3.03858,-0.75654 1.77353,-0.19844 3.80751,-0.29766 v -0.35967 q 0,-0.79375 -0.28525,-1.31464 -0.27285,-0.5209 -0.79375,-0.81856 -0.49609,-0.28525 -1.19062,-0.38447 -0.69454,-0.0992 -1.45108,-0.0992 -0.91777,0 -2.04638,0.24805 -1.12862,0.23564 -2.33165,0.69453 h -0.12402 v -2.36885 q 0.68213,-0.18603 1.97197,-0.40928 1.28985,-0.22324 2.54248,-0.22324 1.46348,0 2.54248,0.24805 1.09141,0.23564 1.88516,0.81855 0.78135,0.57051 1.19063,1.47588 0.40927,0.90537 0.40927,2.24483 z m -2.31924,-3.41064 v -3.85713 q -1.0666,0.062 -2.51767,0.18603 -1.43867,0.12403 -2.28203,0.35967 -1.00459,0.28526 -1.62471,0.89297 -0.62012,0.59531 -0.62012,1.64951 0,1.19063 0.71934,1.79834 0.71934,0.59531 2.19521,0.59531 1.22784,0 2.24483,-0.47128 1.01699,-0.4837 1.88515,-1.15342 z"
         id="path14869" />
      <path
         d="m 132.79189,119.32707 h -3.07578 l -5.55625,-6.06474 -1.51309,1.43867 v 4.62607 h -2.33164 v -19.29804 h 2.33164 v 12.37753 l 6.73447,-6.93291 h 2.93936 l -6.43682,6.39961 z"
         id="path14871" />
      <path
         d="m 146.5957,112.64221 h -10.20713 q 0,1.27744 0.38447,2.23242 0.38447,0.94258 1.0542,1.55029 0.64492,0.59532 1.52549,0.89297 0.89297,0.29766 1.95957,0.29766 1.41386,0 2.84013,-0.55811 1.43868,-0.5705 2.04639,-1.11621 h 0.12402 v 2.54248 q -1.17822,0.4961 -2.40605,0.83096 -1.22783,0.33486 -2.57969,0.33486 -3.44785,0 -5.38262,-1.86035 -1.93476,-1.87275 -1.93476,-5.3082 0,-3.39824 1.84795,-5.39502 1.86035,-1.99678 4.88652,-1.99678 2.80293,0 4.31602,1.63711 1.52549,1.63711 1.52549,4.65088 z m -2.26963,-1.78594 q -0.0124,-1.83555 -0.93018,-2.84014 -0.90537,-1.00459 -2.76572,-1.00459 -1.87276,0 -2.98897,1.10381 -1.10381,1.10381 -1.25263,2.74092 z"
         id="path14873" />
    </g>
  </g>
</svg>
