<?xml version="1.0" standalone="no"?>
<!DOCTYPE svg PUBLIC "-//W3C//DTD SVG 20010904//EN"
 "http://www.w3.org/TR/2001/REC-SVG-20010904/DTD/svg10.dtd">
<svg version="1.0" xmlns="http://www.w3.org/2000/svg"
 width="233.000000pt" height="69.000000pt" viewBox="0 0 233.000000 69.000000"
 preserveAspectRatio="xMidYMid meet">

<g transform="translate(0.000000,69.000000) scale(0.100000,-0.100000)"
fill="#000000" stroke="none">
<path d="M665 476 c-14 -14 -25 -34 -25 -46 0 -11 -7 -20 -15 -20 -8 0 -15 -7
-15 -15 0 -8 7 -15 15 -15 12 0 15 -18 15 -100 0 -82 3 -100 15 -100 12 0 15
18 15 100 l0 100 25 0 c16 0 25 6 25 15 0 9 -10 15 -26 15 -20 0 -25 4 -20 16
3 9 6 20 6 25 0 4 15 12 33 17 37 10 39 26 3 30 -17 2 -34 -5 -51 -22z"/>
<path d="M780 340 c0 -153 1 -160 20 -160 17 0 20 7 20 43 0 40 13 67 32 67 5
0 24 -25 43 -55 23 -36 42 -55 55 -55 17 0 14 9 -26 71 l-45 71 36 44 c33 40
34 44 16 44 -14 0 -36 -20 -64 -55 l-42 -55 -3 100 c-2 92 -4 100 -22 100 -19
0 -20 -8 -20 -160z"/>
<path d="M140 335 c0 -148 1 -155 20 -155 17 0 20 7 20 41 0 41 33 104 50 94
4 -3 25 -34 46 -70 25 -42 45 -65 56 -65 10 0 18 3 18 8 0 4 -23 43 -49 86
l-49 80 37 55 c55 82 55 81 32 81 -15 0 -36 -23 -73 -80 -29 -44 -56 -80 -60
-80 -5 0 -8 36 -8 80 0 73 -2 80 -20 80 -19 0 -20 -7 -20 -155z"/>
<path d="M1760 320 c0 -153 1 -160 20 -160 17 0 20 7 20 43 0 40 13 67 32 67
5 0 24 -25 43 -55 23 -36 42 -55 55 -55 17 0 14 9 -26 71 l-45 71 36 44 c33
40 34 44 16 44 -14 0 -36 -20 -64 -55 l-42 -55 -3 100 c-2 92 -4 100 -22 100
-19 0 -20 -8 -20 -160z"/>
<path d="M1345 460 c-11 -4 -30 -18 -42 -31 -86 -94 -34 -269 80 -269 33 0 97
28 97 41 0 15 -30 23 -43 10 -14 -14 -62 -14 -88 -1 -48 26 -64 121 -29 177
22 36 54 48 106 40 28 -5 34 -3 34 12 0 28 -69 41 -115 21z"/>
<path d="M412 399 c-37 -14 -16 -29 32 -23 38 6 45 3 60 -17 23 -33 20 -39
-13 -33 -77 16 -142 -75 -91 -126 23 -23 54 -25 90 -7 21 11 29 11 48 -1 28
-18 37 -11 23 16 -6 12 -11 52 -11 91 0 63 -2 71 -26 90 -28 22 -73 26 -112
10z m106 -130 c6 -54 -89 -85 -96 -31 -5 34 26 64 62 60 25 -2 32 -8 34 -29z"/>
<path d="M1022 399 c-37 -14 -16 -29 32 -23 38 6 45 3 60 -17 23 -33 20 -39
-13 -33 -77 16 -142 -75 -91 -126 23 -23 54 -25 90 -7 21 11 29 11 48 -1 28
-18 37 -11 23 16 -6 12 -11 52 -11 91 0 63 -2 71 -26 90 -28 22 -73 26 -112
10z m106 -130 c6 -54 -89 -85 -96 -31 -5 34 26 64 62 60 25 -2 32 -8 34 -29z"/>
<path d="M1552 379 c-37 -14 -16 -29 32 -23 38 6 45 3 60 -17 23 -33 20 -39
-13 -33 -77 16 -142 -75 -91 -126 23 -23 54 -25 90 -7 21 11 29 11 48 -1 28
-18 37 -11 23 16 -6 12 -11 52 -11 91 0 63 -2 71 -26 90 -28 22 -73 26 -112
10z m106 -130 c6 -54 -89 -85 -96 -31 -5 34 26 64 62 60 25 -2 32 -8 34 -29z"/>
<path d="M2005 357 c-31 -31 -35 -41 -35 -85 0 -56 28 -96 75 -108 34 -8 108
13 102 29 -3 7 -11 10 -18 8 -66 -19 -113 -3 -121 43 l-5 26 83 0 84 0 0 33
c0 44 -35 77 -89 84 -36 5 -44 2 -76 -30z m115 -17 c33 -33 24 -40 -45 -40
-69 0 -79 8 -48 42 21 24 68 23 93 -2z"/>
</g>
</svg>
